<?xml version="1.0" encoding="UTF-8" standalone="no"?>
<svg width="171px" height="40px" viewBox="0 0 171 40" version="1.1" xmlns="http://www.w3.org/2000/svg" xmlns:xlink="http://www.w3.org/1999/xlink">
    <!-- Generator: Sketch 3.6 (26304) - http://www.bohemiancoding.com/sketch -->
    <title>dCoder</title>
    <desc>Created with Sketch.</desc>
    <defs></defs>
    <g id="Page-1" stroke="none" stroke-width="1" fill="none" fill-rule="evenodd">
        <g id="dCoder" transform="translate(-1.000000, -10.000000)">
            <text id="dC---der" font-family="SFUIDisplay-Semibold, SF UI Display" font-size="50.3660322" font-weight="500" letter-spacing="-0.400000006">
                <tspan x="0" y="48" fill="#7F8C8D">d</tspan>
                <tspan x="29.6277956" y="48" fill="#3498DB">C   de</tspan>
                <tspan x="154.347923" y="48" fill="#7F8C8D">r</tspan>
            </text>
            <g id="magnifind" transform="translate(67.000000, 20.000000)">
                <path d="M28.6616074,26.2468962 L21.6872414,19.2693223 C25.4248749,14.6467064 25.1445906,7.83209271 20.8570982,3.53600976 C18.6316534,1.31368664 15.6788771,0.0878097045 12.5342468,0.0878097045 C9.39298234,0.0878097045 6.43653416,1.31368664 4.2150672,3.53600976 C-0.374434588,8.13044456 -0.374434588,15.6024126 4.2150672,20.1943969 C6.43684015,22.4210084 9.39328833,23.6447411 12.5342468,23.6447411 C15.2563088,23.6447411 17.8397586,22.7227297 19.930875,21.0300271 L26.9009571,28.0094389 C27.142381,28.2532665 27.4621376,28.373955 27.7776104,28.373955 C28.097367,28.373955 28.4171236,28.2529602 28.6616074,28.0094389 C29.147515,27.5230089 29.147515,26.7339387 28.6616074,26.2468962 L28.6616074,26.2468962 Z M5.97510549,18.4339984 C2.35833696,14.8136487 2.35833696,8.92074004 5.97510549,5.30039035 C7.72810607,3.54489292 10.0569745,2.57999729 12.5342468,2.57999729 C15.0148849,2.57999729 17.3431414,3.54489292 19.0967539,5.30039035 C22.7101566,8.92074004 22.7101566,14.8136487 19.0967539,18.4339984 C17.3434474,20.1876579 15.0148849,21.1540851 12.5342468,21.1540851 C10.0569745,21.1540851 7.72810607,20.1876579 5.97510549,18.4339984 L5.97510549,18.4339984 Z" id="Shape" stroke="#3498DB" stroke-width="2" fill="#3498DB"></path>
                <path d="M16.8639383,10.3367241 C16.8639383,7.4128637 14.4962261,5.04260649 11.575505,5.04260649" id="Oval-1" stroke="#7F8C8D" transform="translate(14.219722, 7.689665) rotate(-20.000000) translate(-14.219722, -7.689665) "></path>
            </g>
        </g>
    </g>
</svg>